<mxfile host="Electron" modified="2024-03-03T03:52:03.737Z" agent="Mozilla/5.0 (Windows NT 10.0; Win64; x64) AppleWebKit/537.36 (KHTML, like Gecko) draw.io/23.1.5 Chrome/120.0.6099.109 Electron/28.1.0 Safari/537.36" etag="2EdUJQM3xhIxmApXBd6k" version="23.1.5" type="device">
  <diagram name="Page-1" id="g_9UJ1B9h7szoFe3faDW">
    <mxGraphModel dx="1434" dy="844" grid="1" gridSize="10" guides="1" tooltips="1" connect="1" arrows="1" fold="1" page="1" pageScale="1" pageWidth="850" pageHeight="1100" background="none" math="0" shadow="1">
      <root>
        <mxCell id="0" />
        <mxCell id="1" parent="0" />
        <mxCell id="hVBBo-Noh_KrKmpqdySW-195" value="" style="whiteSpace=wrap;html=1;align=center;dashed=1;dashPattern=8 8;fillColor=none;" parent="1" vertex="1">
          <mxGeometry x="300" y="190" width="280" height="70" as="geometry" />
        </mxCell>
        <mxCell id="hVBBo-Noh_KrKmpqdySW-178" value="" style="whiteSpace=wrap;html=1;align=center;dashed=1;dashPattern=8 8;fillColor=none;" parent="1" vertex="1">
          <mxGeometry x="85" y="500" width="140" height="200" as="geometry" />
        </mxCell>
        <mxCell id="hVBBo-Noh_KrKmpqdySW-150" value="" style="edgeStyle=orthogonalEdgeStyle;fontSize=12;html=1;endArrow=ERzeroToMany;endFill=1;rounded=0;entryX=0.353;entryY=1.009;entryDx=0;entryDy=0;entryPerimeter=0;exitX=1;exitY=0.5;exitDx=0;exitDy=0;" parent="1" source="hVBBo-Noh_KrKmpqdySW-149" target="hVBBo-Noh_KrKmpqdySW-4" edge="1">
          <mxGeometry width="100" height="100" relative="1" as="geometry">
            <mxPoint x="200" y="870" as="sourcePoint" />
            <mxPoint x="300" y="770" as="targetPoint" />
          </mxGeometry>
        </mxCell>
        <mxCell id="hVBBo-Noh_KrKmpqdySW-135" value="" style="endArrow=none;html=1;rounded=0;edgeStyle=orthogonalEdgeStyle;entryX=0;entryY=0.5;entryDx=0;entryDy=0;exitX=0.75;exitY=1;exitDx=0;exitDy=0;startArrow=ERmandOne;startFill=0;" parent="1" source="hVBBo-Noh_KrKmpqdySW-4" target="hVBBo-Noh_KrKmpqdySW-132" edge="1">
          <mxGeometry width="50" height="50" relative="1" as="geometry">
            <mxPoint x="539.73" y="625" as="sourcePoint" />
            <mxPoint x="589.73" y="575" as="targetPoint" />
          </mxGeometry>
        </mxCell>
        <mxCell id="hVBBo-Noh_KrKmpqdySW-39" value="SUV" style="ellipse;whiteSpace=wrap;html=1;align=center;" parent="1" vertex="1">
          <mxGeometry x="445" y="590" width="70" height="30" as="geometry" />
        </mxCell>
        <mxCell id="hVBBo-Noh_KrKmpqdySW-146" value="" style="endArrow=none;html=1;rounded=0;entryX=1;entryY=0.5;entryDx=0;entryDy=0;exitX=0.5;exitY=0;exitDx=0;exitDy=0;edgeStyle=orthogonalEdgeStyle;" parent="1" source="hVBBo-Noh_KrKmpqdySW-4" target="hVBBo-Noh_KrKmpqdySW-144" edge="1">
          <mxGeometry width="50" height="50" relative="1" as="geometry">
            <mxPoint x="190" y="715" as="sourcePoint" />
            <mxPoint x="240" y="665" as="targetPoint" />
          </mxGeometry>
        </mxCell>
        <mxCell id="hVBBo-Noh_KrKmpqdySW-141" value="" style="endArrow=none;html=1;rounded=0;edgeStyle=orthogonalEdgeStyle;entryX=0.5;entryY=1;entryDx=0;entryDy=0;exitX=0;exitY=0.5;exitDx=0;exitDy=0;" parent="1" source="hVBBo-Noh_KrKmpqdySW-130" target="hVBBo-Noh_KrKmpqdySW-67" edge="1">
          <mxGeometry width="50" height="50" relative="1" as="geometry">
            <mxPoint x="570" y="650" as="sourcePoint" />
            <mxPoint x="620" y="600" as="targetPoint" />
          </mxGeometry>
        </mxCell>
        <mxCell id="hVBBo-Noh_KrKmpqdySW-140" value="" style="whiteSpace=wrap;html=1;align=center;dashed=1;rounded=0;glass=0;shadow=0;gradientColor=none;fillColor=none;dashPattern=8 8;" parent="1" vertex="1">
          <mxGeometry x="630" y="152.5" width="197.5" height="65" as="geometry" />
        </mxCell>
        <mxCell id="hVBBo-Noh_KrKmpqdySW-137" value="" style="endArrow=none;html=1;rounded=0;edgeStyle=orthogonalEdgeStyle;exitX=0.5;exitY=0;exitDx=0;exitDy=0;entryX=0.5;entryY=1;entryDx=0;entryDy=0;" parent="1" source="hVBBo-Noh_KrKmpqdySW-39" target="hVBBo-Noh_KrKmpqdySW-4" edge="1">
          <mxGeometry width="50" height="50" relative="1" as="geometry">
            <mxPoint x="434.45" y="810" as="sourcePoint" />
            <mxPoint x="484.45" y="760" as="targetPoint" />
          </mxGeometry>
        </mxCell>
        <mxCell id="hVBBo-Noh_KrKmpqdySW-40" value="Sedan" style="ellipse;whiteSpace=wrap;html=1;align=center;" parent="1" vertex="1">
          <mxGeometry x="500" y="560" width="70" height="30" as="geometry" />
        </mxCell>
        <mxCell id="hVBBo-Noh_KrKmpqdySW-50" value="" style="edgeStyle=orthogonalEdgeStyle;fontSize=12;html=1;endArrow=ERoneToMany;rounded=0;entryX=0;entryY=0.5;entryDx=0;entryDy=0;exitX=1;exitY=0.5;exitDx=0;exitDy=0;" parent="1" source="hVBBo-Noh_KrKmpqdySW-67" target="hVBBo-Noh_KrKmpqdySW-51" edge="1">
          <mxGeometry width="100" height="100" relative="1" as="geometry">
            <mxPoint x="540" y="739.5" as="sourcePoint" />
            <mxPoint x="640" y="639.5" as="targetPoint" />
          </mxGeometry>
        </mxCell>
        <mxCell id="hVBBo-Noh_KrKmpqdySW-1" value="User&amp;nbsp;" style="rounded=0;whiteSpace=wrap;html=1;" parent="1" vertex="1">
          <mxGeometry x="370" y="385" width="80" height="30" as="geometry" />
        </mxCell>
        <mxCell id="hVBBo-Noh_KrKmpqdySW-4" value="&lt;b&gt;Vehicle&lt;/b&gt;" style="rounded=0;whiteSpace=wrap;html=1;" parent="1" vertex="1">
          <mxGeometry x="420" y="450" width="80" height="30" as="geometry" />
        </mxCell>
        <mxCell id="hVBBo-Noh_KrKmpqdySW-10" value="" style="endArrow=none;html=1;rounded=0;edgeStyle=orthogonalEdgeStyle;startArrow=ERone;startFill=0;entryX=0.5;entryY=1;entryDx=0;entryDy=0;exitX=1;exitY=0.5;exitDx=0;exitDy=0;" parent="1" source="hVBBo-Noh_KrKmpqdySW-4" target="hVBBo-Noh_KrKmpqdySW-54" edge="1">
          <mxGeometry width="50" height="50" relative="1" as="geometry">
            <mxPoint x="580" y="810" as="sourcePoint" />
            <mxPoint x="580" y="690" as="targetPoint" />
          </mxGeometry>
        </mxCell>
        <mxCell id="hVBBo-Noh_KrKmpqdySW-11" value="" style="endArrow=none;html=1;rounded=0;edgeStyle=orthogonalEdgeStyle;entryX=1;entryY=0.5;entryDx=0;entryDy=0;exitX=0;exitY=0.5;exitDx=0;exitDy=0;" parent="1" source="hVBBo-Noh_KrKmpqdySW-3" target="hVBBo-Noh_KrKmpqdySW-1" edge="1">
          <mxGeometry width="50" height="50" relative="1" as="geometry">
            <mxPoint x="480" y="550" as="sourcePoint" />
            <mxPoint x="480" y="430" as="targetPoint" />
          </mxGeometry>
        </mxCell>
        <mxCell id="hVBBo-Noh_KrKmpqdySW-15" value="Rservation&amp;nbsp;" style="rounded=0;whiteSpace=wrap;html=1;" parent="1" vertex="1">
          <mxGeometry x="320" y="205" width="80" height="30" as="geometry" />
        </mxCell>
        <mxCell id="hVBBo-Noh_KrKmpqdySW-16" value="" style="endArrow=none;html=1;rounded=0;edgeStyle=orthogonalEdgeStyle;entryX=0.5;entryY=0;entryDx=0;entryDy=0;startArrow=ERmany;startFill=0;exitX=0.5;exitY=1;exitDx=0;exitDy=0;" parent="1" source="hVBBo-Noh_KrKmpqdySW-15" target="hVBBo-Noh_KrKmpqdySW-9" edge="1">
          <mxGeometry width="50" height="50" relative="1" as="geometry">
            <mxPoint x="600" y="270" as="sourcePoint" />
            <mxPoint x="519" y="290" as="targetPoint" />
          </mxGeometry>
        </mxCell>
        <mxCell id="hVBBo-Noh_KrKmpqdySW-17" value="" style="endArrow=none;html=1;rounded=0;exitX=0.5;exitY=0;exitDx=0;exitDy=0;edgeStyle=orthogonalEdgeStyle;entryX=0.5;entryY=1;entryDx=0;entryDy=0;startArrow=ERone;startFill=0;" parent="1" source="hVBBo-Noh_KrKmpqdySW-1" target="hVBBo-Noh_KrKmpqdySW-9" edge="1">
          <mxGeometry width="50" height="50" relative="1" as="geometry">
            <mxPoint x="400" y="420" as="sourcePoint" />
            <mxPoint x="400" y="250" as="targetPoint" />
          </mxGeometry>
        </mxCell>
        <mxCell id="hVBBo-Noh_KrKmpqdySW-19" value="V- Inventory" style="shape=ext;margin=3;double=1;whiteSpace=wrap;html=1;align=center;" parent="1" vertex="1">
          <mxGeometry x="140" y="260" width="90" height="30" as="geometry" />
        </mxCell>
        <mxCell id="hVBBo-Noh_KrKmpqdySW-23" value="" style="endArrow=none;html=1;rounded=0;edgeStyle=orthogonalEdgeStyle;entryX=0;entryY=0.5;entryDx=0;entryDy=0;" parent="1" source="hVBBo-Noh_KrKmpqdySW-19" target="hVBBo-Noh_KrKmpqdySW-20" edge="1">
          <mxGeometry width="50" height="50" relative="1" as="geometry">
            <mxPoint x="125" y="450" as="sourcePoint" />
            <mxPoint x="360" y="435" as="targetPoint" />
            <Array as="points" />
          </mxGeometry>
        </mxCell>
        <mxCell id="hVBBo-Noh_KrKmpqdySW-20" value="Access" style="shape=rhombus;perimeter=rhombusPerimeter;whiteSpace=wrap;html=1;align=center;" parent="1" vertex="1">
          <mxGeometry x="220" y="350" width="90" height="40" as="geometry" />
        </mxCell>
        <mxCell id="hVBBo-Noh_KrKmpqdySW-24" value="" style="endArrow=none;html=1;rounded=0;edgeStyle=orthogonalEdgeStyle;entryX=1;entryY=0.5;entryDx=0;entryDy=0;" parent="1" source="hVBBo-Noh_KrKmpqdySW-1" target="hVBBo-Noh_KrKmpqdySW-20" edge="1">
          <mxGeometry width="50" height="50" relative="1" as="geometry">
            <mxPoint x="320" y="620" as="sourcePoint" />
            <mxPoint x="320" y="500" as="targetPoint" />
          </mxGeometry>
        </mxCell>
        <mxCell id="hVBBo-Noh_KrKmpqdySW-27" value="" style="endArrow=none;html=1;rounded=0;edgeStyle=orthogonalEdgeStyle;entryX=0.5;entryY=1;entryDx=0;entryDy=0;exitX=0.5;exitY=0;exitDx=0;exitDy=0;" parent="1" source="hVBBo-Noh_KrKmpqdySW-8" target="hVBBo-Noh_KrKmpqdySW-1" edge="1">
          <mxGeometry width="50" height="50" relative="1" as="geometry">
            <mxPoint x="560" y="640" as="sourcePoint" />
            <mxPoint x="560" y="520" as="targetPoint" />
          </mxGeometry>
        </mxCell>
        <mxCell id="hVBBo-Noh_KrKmpqdySW-30" value="" style="endArrow=none;html=1;rounded=0;edgeStyle=orthogonalEdgeStyle;entryX=0.5;entryY=1;entryDx=0;entryDy=0;startArrow=ERoneToMany;startFill=0;" parent="1" source="hVBBo-Noh_KrKmpqdySW-4" target="hVBBo-Noh_KrKmpqdySW-8" edge="1">
          <mxGeometry width="50" height="50" relative="1" as="geometry">
            <mxPoint x="390" y="650" as="sourcePoint" />
            <mxPoint x="400" y="450" as="targetPoint" />
          </mxGeometry>
        </mxCell>
        <mxCell id="hVBBo-Noh_KrKmpqdySW-8" value="Add &amp;amp; remove" style="shape=rhombus;double=1;perimeter=rhombusPerimeter;whiteSpace=wrap;html=1;align=center;" parent="1" vertex="1">
          <mxGeometry x="230" y="500" width="100" height="50" as="geometry" />
        </mxCell>
        <mxCell id="hVBBo-Noh_KrKmpqdySW-31" value="Damaged" style="ellipse;whiteSpace=wrap;html=1;align=center;" parent="1" vertex="1">
          <mxGeometry x="340" y="500" width="70" height="30" as="geometry" />
        </mxCell>
        <mxCell id="hVBBo-Noh_KrKmpqdySW-32" value="Accident&amp;nbsp;" style="ellipse;whiteSpace=wrap;html=1;align=center;" parent="1" vertex="1">
          <mxGeometry x="340" y="520" width="70" height="30" as="geometry" />
        </mxCell>
        <mxCell id="hVBBo-Noh_KrKmpqdySW-33" value="" style="endArrow=none;html=1;rounded=0;edgeStyle=orthogonalEdgeStyle;entryX=1;entryY=0.5;entryDx=0;entryDy=0;exitX=0;exitY=0.5;exitDx=0;exitDy=0;" parent="1" source="hVBBo-Noh_KrKmpqdySW-31" target="hVBBo-Noh_KrKmpqdySW-8" edge="1">
          <mxGeometry width="50" height="50" relative="1" as="geometry">
            <mxPoint x="650" y="740" as="sourcePoint" />
            <mxPoint x="650" y="620" as="targetPoint" />
          </mxGeometry>
        </mxCell>
        <mxCell id="hVBBo-Noh_KrKmpqdySW-34" value="" style="endArrow=none;html=1;rounded=0;edgeStyle=orthogonalEdgeStyle;entryX=1;entryY=0.5;entryDx=0;entryDy=0;exitX=0;exitY=0.5;exitDx=0;exitDy=0;" parent="1" source="hVBBo-Noh_KrKmpqdySW-32" target="hVBBo-Noh_KrKmpqdySW-8" edge="1">
          <mxGeometry width="50" height="50" relative="1" as="geometry">
            <mxPoint x="740" y="780" as="sourcePoint" />
            <mxPoint x="740" y="660" as="targetPoint" />
          </mxGeometry>
        </mxCell>
        <mxCell id="hVBBo-Noh_KrKmpqdySW-35" value="Booking" style="shape=ext;margin=3;double=1;whiteSpace=wrap;html=1;align=center;" parent="1" vertex="1">
          <mxGeometry x="455" y="200" width="100" height="40" as="geometry" />
        </mxCell>
        <mxCell id="hVBBo-Noh_KrKmpqdySW-41" value="Truck" style="ellipse;whiteSpace=wrap;html=1;align=center;" parent="1" vertex="1">
          <mxGeometry x="445" y="560" width="70" height="30" as="geometry" />
        </mxCell>
        <mxCell id="hVBBo-Noh_KrKmpqdySW-43" value="" style="endArrow=none;html=1;rounded=0;edgeStyle=orthogonalEdgeStyle;entryX=0.5;entryY=1;entryDx=0;entryDy=0;exitX=0.5;exitY=0;exitDx=0;exitDy=0;" parent="1" source="hVBBo-Noh_KrKmpqdySW-40" target="hVBBo-Noh_KrKmpqdySW-4" edge="1">
          <mxGeometry width="50" height="50" relative="1" as="geometry">
            <mxPoint x="275" y="639.5" as="sourcePoint" />
            <mxPoint x="375" y="639.5" as="targetPoint" />
          </mxGeometry>
        </mxCell>
        <mxCell id="hVBBo-Noh_KrKmpqdySW-49" value="" style="endArrow=none;html=1;rounded=0;edgeStyle=orthogonalEdgeStyle;exitX=0.5;exitY=0;exitDx=0;exitDy=0;entryX=0.5;entryY=1;entryDx=0;entryDy=0;" parent="1" source="hVBBo-Noh_KrKmpqdySW-9" target="hVBBo-Noh_KrKmpqdySW-35" edge="1">
          <mxGeometry width="50" height="50" relative="1" as="geometry">
            <mxPoint x="800" y="370" as="sourcePoint" />
            <mxPoint x="800" y="250" as="targetPoint" />
          </mxGeometry>
        </mxCell>
        <mxCell id="hVBBo-Noh_KrKmpqdySW-51" value="customers" style="shape=ext;margin=3;double=1;whiteSpace=wrap;html=1;align=center;shadow=0;" parent="1" vertex="1">
          <mxGeometry x="630" y="340" width="90" height="30" as="geometry" />
        </mxCell>
        <mxCell id="hVBBo-Noh_KrKmpqdySW-52" value="" style="endArrow=none;html=1;rounded=0;edgeStyle=orthogonalEdgeStyle;entryX=0.5;entryY=1;entryDx=0;entryDy=0;startArrow=ERmandOne;startFill=0;exitX=0.5;exitY=0;exitDx=0;exitDy=0;" parent="1" source="hVBBo-Noh_KrKmpqdySW-51" target="hVBBo-Noh_KrKmpqdySW-60" edge="1">
          <mxGeometry width="50" height="50" relative="1" as="geometry">
            <mxPoint x="740" y="400" as="sourcePoint" />
            <mxPoint x="735" y="390" as="targetPoint" />
          </mxGeometry>
        </mxCell>
        <mxCell id="hVBBo-Noh_KrKmpqdySW-54" value="Have" style="shape=rhombus;perimeter=rhombusPerimeter;whiteSpace=wrap;html=1;align=center;" parent="1" vertex="1">
          <mxGeometry x="630" y="505" width="90" height="40" as="geometry" />
        </mxCell>
        <mxCell id="hVBBo-Noh_KrKmpqdySW-61" value="" style="endArrow=none;html=1;rounded=0;edgeStyle=orthogonalEdgeStyle;exitX=1;exitY=0.5;exitDx=0;exitDy=0;entryX=0.5;entryY=0;entryDx=0;entryDy=0;startArrow=ERmandOne;startFill=0;" parent="1" source="hVBBo-Noh_KrKmpqdySW-35" target="hVBBo-Noh_KrKmpqdySW-60" edge="1">
          <mxGeometry width="50" height="50" relative="1" as="geometry">
            <mxPoint x="590" y="215" as="sourcePoint" />
            <mxPoint x="705" y="420" as="targetPoint" />
          </mxGeometry>
        </mxCell>
        <mxCell id="hVBBo-Noh_KrKmpqdySW-60" value="Have" style="shape=rhombus;perimeter=rhombusPerimeter;whiteSpace=wrap;html=1;align=center;" parent="1" vertex="1">
          <mxGeometry x="550" y="260" width="80" height="40" as="geometry" />
        </mxCell>
        <mxCell id="hVBBo-Noh_KrKmpqdySW-63" value="V -ID" style="ellipse;whiteSpace=wrap;html=1;align=center;" parent="1" vertex="1">
          <mxGeometry x="400" y="560" width="70" height="30" as="geometry" />
        </mxCell>
        <mxCell id="hVBBo-Noh_KrKmpqdySW-67" value="Record" style="shape=rhombus;perimeter=rhombusPerimeter;whiteSpace=wrap;html=1;align=center;" parent="1" vertex="1">
          <mxGeometry x="480" y="300" width="80" height="40" as="geometry" />
        </mxCell>
        <mxCell id="hVBBo-Noh_KrKmpqdySW-69" value="" style="endArrow=none;html=1;rounded=0;entryX=0;entryY=0.5;entryDx=0;entryDy=0;edgeStyle=orthogonalEdgeStyle;exitX=1;exitY=0.5;exitDx=0;exitDy=0;" parent="1" source="hVBBo-Noh_KrKmpqdySW-1" target="hVBBo-Noh_KrKmpqdySW-67" edge="1">
          <mxGeometry width="50" height="50" relative="1" as="geometry">
            <mxPoint x="770" y="800" as="sourcePoint" />
            <mxPoint x="820" y="750" as="targetPoint" />
          </mxGeometry>
        </mxCell>
        <mxCell id="hVBBo-Noh_KrKmpqdySW-70" value="Customer ID" style="ellipse;whiteSpace=wrap;html=1;align=center;" parent="1" vertex="1">
          <mxGeometry x="760" y="410" width="70" height="30" as="geometry" />
        </mxCell>
        <mxCell id="hVBBo-Noh_KrKmpqdySW-73" value="Log In&amp;nbsp;" style="ellipse;whiteSpace=wrap;html=1;align=center;" parent="1" vertex="1">
          <mxGeometry x="760" y="430" width="70" height="30" as="geometry" />
        </mxCell>
        <mxCell id="hVBBo-Noh_KrKmpqdySW-74" value="Log In&amp;nbsp;" style="ellipse;whiteSpace=wrap;html=1;align=center;" parent="1" vertex="1">
          <mxGeometry x="760" y="450" width="70" height="30" as="geometry" />
        </mxCell>
        <mxCell id="hVBBo-Noh_KrKmpqdySW-75" value="FullName" style="ellipse;whiteSpace=wrap;html=1;align=center;" parent="1" vertex="1">
          <mxGeometry x="760" y="430" width="70" height="30" as="geometry" />
        </mxCell>
        <mxCell id="hVBBo-Noh_KrKmpqdySW-77" value="E-mail" style="ellipse;whiteSpace=wrap;html=1;align=center;" parent="1" vertex="1">
          <mxGeometry x="760" y="450" width="70" height="30" as="geometry" />
        </mxCell>
        <mxCell id="hVBBo-Noh_KrKmpqdySW-76" value="Phone" style="ellipse;whiteSpace=wrap;html=1;align=center;" parent="1" vertex="1">
          <mxGeometry x="760" y="470" width="70" height="30" as="geometry" />
        </mxCell>
        <mxCell id="hVBBo-Noh_KrKmpqdySW-78" value="Address" style="ellipse;whiteSpace=wrap;html=1;align=center;" parent="1" vertex="1">
          <mxGeometry x="760" y="490" width="70" height="30" as="geometry" />
        </mxCell>
        <mxCell id="hVBBo-Noh_KrKmpqdySW-79" value="" style="endArrow=none;html=1;rounded=0;edgeStyle=orthogonalEdgeStyle;startArrow=ERone;startFill=0;entryX=0.5;entryY=0;entryDx=0;entryDy=0;entryPerimeter=0;exitX=0.5;exitY=1;exitDx=0;exitDy=0;" parent="1" source="hVBBo-Noh_KrKmpqdySW-122" target="hVBBo-Noh_KrKmpqdySW-7" edge="1">
          <mxGeometry width="50" height="50" relative="1" as="geometry">
            <mxPoint x="830" y="230" as="sourcePoint" />
            <mxPoint x="819.73" y="760" as="targetPoint" />
          </mxGeometry>
        </mxCell>
        <mxCell id="hVBBo-Noh_KrKmpqdySW-80" value="" style="endArrow=none;html=1;rounded=0;edgeStyle=orthogonalEdgeStyle;entryX=0;entryY=0;entryDx=0;entryDy=0;entryPerimeter=0;exitX=0.5;exitY=0;exitDx=0;exitDy=0;" parent="1" source="hVBBo-Noh_KrKmpqdySW-35" target="hVBBo-Noh_KrKmpqdySW-92" edge="1">
          <mxGeometry width="50" height="50" relative="1" as="geometry">
            <mxPoint x="304.5" y="99.5" as="sourcePoint" />
            <mxPoint x="354.5" y="49.5" as="targetPoint" />
          </mxGeometry>
        </mxCell>
        <mxCell id="hVBBo-Noh_KrKmpqdySW-81" value="" style="endArrow=none;html=1;rounded=0;edgeStyle=orthogonalEdgeStyle;exitX=0.5;exitY=0;exitDx=0;exitDy=0;entryX=1;entryY=0.5;entryDx=0;entryDy=0;" parent="1" source="hVBBo-Noh_KrKmpqdySW-15" target="hVBBo-Noh_KrKmpqdySW-103" edge="1">
          <mxGeometry width="50" height="50" relative="1" as="geometry">
            <mxPoint x="389.48" y="140" as="sourcePoint" />
            <mxPoint x="439.48" y="90" as="targetPoint" />
          </mxGeometry>
        </mxCell>
        <mxCell id="hVBBo-Noh_KrKmpqdySW-82" value="" style="endArrow=none;html=1;rounded=0;edgeStyle=orthogonalEdgeStyle;entryX=1;entryY=0.5;entryDx=0;entryDy=0;exitX=0.5;exitY=0;exitDx=0;exitDy=0;" parent="1" source="hVBBo-Noh_KrKmpqdySW-15" target="hVBBo-Noh_KrKmpqdySW-109" edge="1">
          <mxGeometry width="50" height="50" relative="1" as="geometry">
            <mxPoint x="214.73000000000002" y="310" as="sourcePoint" />
            <mxPoint x="264.73" y="260" as="targetPoint" />
          </mxGeometry>
        </mxCell>
        <mxCell id="hVBBo-Noh_KrKmpqdySW-83" value="" style="endArrow=none;html=1;rounded=0;edgeStyle=orthogonalEdgeStyle;entryX=1;entryY=0.5;entryDx=0;entryDy=0;exitX=0.5;exitY=0;exitDx=0;exitDy=0;" parent="1" source="hVBBo-Noh_KrKmpqdySW-15" target="hVBBo-Noh_KrKmpqdySW-111" edge="1">
          <mxGeometry width="50" height="50" relative="1" as="geometry">
            <mxPoint x="189.45000000000005" y="239.73000000000002" as="sourcePoint" />
            <mxPoint x="249.45000000000005" y="189.73000000000002" as="targetPoint" />
          </mxGeometry>
        </mxCell>
        <mxCell id="hVBBo-Noh_KrKmpqdySW-84" value="" style="endArrow=none;html=1;rounded=0;edgeStyle=orthogonalEdgeStyle;exitX=0.5;exitY=0;exitDx=0;exitDy=0;entryX=1;entryY=0.5;entryDx=0;entryDy=0;" parent="1" source="hVBBo-Noh_KrKmpqdySW-15" target="hVBBo-Noh_KrKmpqdySW-110" edge="1">
          <mxGeometry width="50" height="50" relative="1" as="geometry">
            <mxPoint x="170" y="310" as="sourcePoint" />
            <mxPoint x="220" y="260" as="targetPoint" />
          </mxGeometry>
        </mxCell>
        <mxCell id="hVBBo-Noh_KrKmpqdySW-85" value="" style="endArrow=none;html=1;rounded=0;edgeStyle=orthogonalEdgeStyle;entryX=0.5;entryY=0;entryDx=0;entryDy=0;exitX=0.5;exitY=1;exitDx=0;exitDy=0;" parent="1" source="hVBBo-Noh_KrKmpqdySW-4" target="hVBBo-Noh_KrKmpqdySW-63" edge="1">
          <mxGeometry width="50" height="50" relative="1" as="geometry">
            <mxPoint x="784.45" y="815" as="sourcePoint" />
            <mxPoint x="834.45" y="765" as="targetPoint" />
          </mxGeometry>
        </mxCell>
        <mxCell id="hVBBo-Noh_KrKmpqdySW-86" value="" style="endArrow=none;html=1;rounded=0;edgeStyle=orthogonalEdgeStyle;entryX=0;entryY=0.5;entryDx=0;entryDy=0;exitX=0.5;exitY=1;exitDx=0;exitDy=0;" parent="1" source="hVBBo-Noh_KrKmpqdySW-67" target="hVBBo-Noh_KrKmpqdySW-78" edge="1">
          <mxGeometry width="50" height="50" relative="1" as="geometry">
            <mxPoint x="750" y="709.5" as="sourcePoint" />
            <mxPoint x="800" y="660" as="targetPoint" />
          </mxGeometry>
        </mxCell>
        <mxCell id="hVBBo-Noh_KrKmpqdySW-87" value="" style="endArrow=none;html=1;rounded=0;edgeStyle=orthogonalEdgeStyle;entryX=0.5;entryY=1;entryDx=0;entryDy=0;exitX=0;exitY=0.5;exitDx=0;exitDy=0;" parent="1" source="hVBBo-Noh_KrKmpqdySW-75" target="hVBBo-Noh_KrKmpqdySW-67" edge="1">
          <mxGeometry width="50" height="50" relative="1" as="geometry">
            <mxPoint x="780" y="690" as="sourcePoint" />
            <mxPoint x="829.75" y="669.5" as="targetPoint" />
          </mxGeometry>
        </mxCell>
        <mxCell id="hVBBo-Noh_KrKmpqdySW-88" value="" style="endArrow=none;html=1;rounded=0;edgeStyle=orthogonalEdgeStyle;entryX=0;entryY=0.5;entryDx=0;entryDy=0;exitX=0.5;exitY=1;exitDx=0;exitDy=0;" parent="1" source="hVBBo-Noh_KrKmpqdySW-67" target="hVBBo-Noh_KrKmpqdySW-70" edge="1">
          <mxGeometry width="50" height="50" relative="1" as="geometry">
            <mxPoint x="789.45" y="739.5" as="sourcePoint" />
            <mxPoint x="839.45" y="689.5" as="targetPoint" />
          </mxGeometry>
        </mxCell>
        <mxCell id="hVBBo-Noh_KrKmpqdySW-89" value="" style="endArrow=none;html=1;rounded=0;edgeStyle=orthogonalEdgeStyle;entryX=0;entryY=0.5;entryDx=0;entryDy=0;exitX=0.5;exitY=1;exitDx=0;exitDy=0;" parent="1" source="hVBBo-Noh_KrKmpqdySW-67" target="hVBBo-Noh_KrKmpqdySW-76" edge="1">
          <mxGeometry width="50" height="50" relative="1" as="geometry">
            <mxPoint x="490" y="680" as="sourcePoint" />
            <mxPoint x="710" y="745" as="targetPoint" />
          </mxGeometry>
        </mxCell>
        <mxCell id="hVBBo-Noh_KrKmpqdySW-90" value="" style="endArrow=none;html=1;rounded=0;edgeStyle=orthogonalEdgeStyle;entryX=0;entryY=0.5;entryDx=0;entryDy=0;exitX=0.5;exitY=1;exitDx=0;exitDy=0;" parent="1" source="hVBBo-Noh_KrKmpqdySW-67" target="hVBBo-Noh_KrKmpqdySW-77" edge="1">
          <mxGeometry width="50" height="50" relative="1" as="geometry">
            <mxPoint x="500" y="642.5" as="sourcePoint" />
            <mxPoint x="720" y="687.5" as="targetPoint" />
          </mxGeometry>
        </mxCell>
        <mxCell id="hVBBo-Noh_KrKmpqdySW-57" value="" style="edgeStyle=orthogonalEdgeStyle;fontSize=12;html=1;endArrow=ERoneToMany;rounded=0;entryX=0.5;entryY=1;entryDx=0;entryDy=0;" parent="1" source="hVBBo-Noh_KrKmpqdySW-54" target="hVBBo-Noh_KrKmpqdySW-51" edge="1">
          <mxGeometry width="100" height="100" relative="1" as="geometry">
            <mxPoint x="500" y="700" as="sourcePoint" />
            <mxPoint x="710" y="490" as="targetPoint" />
          </mxGeometry>
        </mxCell>
        <mxCell id="hVBBo-Noh_KrKmpqdySW-3" value="Loged&amp;nbsp;" style="ellipse;whiteSpace=wrap;html=1;align=center;" parent="1" vertex="1">
          <mxGeometry x="530" y="380" width="70" height="30" as="geometry" />
        </mxCell>
        <mxCell id="hVBBo-Noh_KrKmpqdySW-91" value="Booking ID" style="ellipse;whiteSpace=wrap;html=1;align=center;" parent="1" vertex="1">
          <mxGeometry x="550" y="80" width="70" height="30" as="geometry" />
        </mxCell>
        <mxCell id="hVBBo-Noh_KrKmpqdySW-92" value="Resv -ID" style="ellipse;whiteSpace=wrap;html=1;align=center;" parent="1" vertex="1">
          <mxGeometry x="550" y="100" width="70" height="30" as="geometry" />
        </mxCell>
        <mxCell id="hVBBo-Noh_KrKmpqdySW-93" value="Date" style="ellipse;whiteSpace=wrap;html=1;align=center;" parent="1" vertex="1">
          <mxGeometry x="550" y="120" width="70" height="30" as="geometry" />
        </mxCell>
        <mxCell id="hVBBo-Noh_KrKmpqdySW-96" value="Payment Confirmation&amp;nbsp;&amp;nbsp;" style="ellipse;whiteSpace=wrap;html=1;align=center;" parent="1" vertex="1">
          <mxGeometry x="550" y="140" width="70" height="30" as="geometry" />
        </mxCell>
        <mxCell id="hVBBo-Noh_KrKmpqdySW-97" value="" style="endArrow=none;html=1;rounded=0;edgeStyle=orthogonalEdgeStyle;entryX=0;entryY=0.5;entryDx=0;entryDy=0;exitX=0.5;exitY=0;exitDx=0;exitDy=0;" parent="1" source="hVBBo-Noh_KrKmpqdySW-35" target="hVBBo-Noh_KrKmpqdySW-92" edge="1">
          <mxGeometry width="50" height="50" relative="1" as="geometry">
            <mxPoint x="430" y="185" as="sourcePoint" />
            <mxPoint x="470" y="90" as="targetPoint" />
          </mxGeometry>
        </mxCell>
        <mxCell id="hVBBo-Noh_KrKmpqdySW-98" value="" style="endArrow=none;html=1;rounded=0;edgeStyle=orthogonalEdgeStyle;entryX=0;entryY=0.5;entryDx=0;entryDy=0;exitX=0.5;exitY=0;exitDx=0;exitDy=0;" parent="1" source="hVBBo-Noh_KrKmpqdySW-35" target="hVBBo-Noh_KrKmpqdySW-93" edge="1">
          <mxGeometry width="50" height="50" relative="1" as="geometry">
            <mxPoint x="440" y="175" as="sourcePoint" />
            <mxPoint x="480" y="95" as="targetPoint" />
          </mxGeometry>
        </mxCell>
        <mxCell id="hVBBo-Noh_KrKmpqdySW-99" value="" style="endArrow=none;html=1;rounded=0;edgeStyle=orthogonalEdgeStyle;entryX=0;entryY=0.5;entryDx=0;entryDy=0;exitX=0.5;exitY=0;exitDx=0;exitDy=0;" parent="1" source="hVBBo-Noh_KrKmpqdySW-35" target="hVBBo-Noh_KrKmpqdySW-96" edge="1">
          <mxGeometry width="50" height="50" relative="1" as="geometry">
            <mxPoint x="425" y="165" as="sourcePoint" />
            <mxPoint x="465" y="105" as="targetPoint" />
          </mxGeometry>
        </mxCell>
        <mxCell id="hVBBo-Noh_KrKmpqdySW-102" value="" style="endArrow=none;html=1;rounded=0;edgeStyle=orthogonalEdgeStyle;entryX=0;entryY=0.5;entryDx=0;entryDy=0;exitX=0.5;exitY=1;exitDx=0;exitDy=0;startArrow=ERoneToMany;startFill=0;" parent="1" source="hVBBo-Noh_KrKmpqdySW-15" target="hVBBo-Noh_KrKmpqdySW-60" edge="1">
          <mxGeometry width="50" height="50" relative="1" as="geometry">
            <mxPoint x="210" y="294.73" as="sourcePoint" />
            <mxPoint x="260" y="244.73" as="targetPoint" />
          </mxGeometry>
        </mxCell>
        <mxCell id="hVBBo-Noh_KrKmpqdySW-103" value="Rev -ID" style="ellipse;whiteSpace=wrap;html=1;align=center;" parent="1" vertex="1">
          <mxGeometry x="170" y="90" width="70" height="30" as="geometry" />
        </mxCell>
        <mxCell id="hVBBo-Noh_KrKmpqdySW-104" value="Log In&amp;nbsp;" style="ellipse;whiteSpace=wrap;html=1;align=center;" parent="1" vertex="1">
          <mxGeometry x="170" y="110" width="70" height="30" as="geometry" />
        </mxCell>
        <mxCell id="hVBBo-Noh_KrKmpqdySW-105" value="Log In&amp;nbsp;" style="ellipse;whiteSpace=wrap;html=1;align=center;" parent="1" vertex="1">
          <mxGeometry x="170" y="130" width="70" height="30" as="geometry" />
        </mxCell>
        <mxCell id="hVBBo-Noh_KrKmpqdySW-106" value="Customer -ID" style="ellipse;whiteSpace=wrap;html=1;align=center;" parent="1" vertex="1">
          <mxGeometry x="170" y="110" width="70" height="30" as="geometry" />
        </mxCell>
        <mxCell id="hVBBo-Noh_KrKmpqdySW-107" value="Vehicle - ID" style="ellipse;whiteSpace=wrap;html=1;align=center;" parent="1" vertex="1">
          <mxGeometry x="170" y="130" width="70" height="30" as="geometry" />
        </mxCell>
        <mxCell id="hVBBo-Noh_KrKmpqdySW-108" value="Start date" style="ellipse;whiteSpace=wrap;html=1;align=center;" parent="1" vertex="1">
          <mxGeometry x="170" y="150" width="70" height="30" as="geometry" />
        </mxCell>
        <mxCell id="hVBBo-Noh_KrKmpqdySW-109" value="End -date" style="ellipse;whiteSpace=wrap;html=1;align=center;" parent="1" vertex="1">
          <mxGeometry x="170" y="170" width="70" height="30" as="geometry" />
        </mxCell>
        <mxCell id="hVBBo-Noh_KrKmpqdySW-110" value="Location" style="ellipse;whiteSpace=wrap;html=1;align=center;" parent="1" vertex="1">
          <mxGeometry x="170" y="190" width="70" height="30" as="geometry" />
        </mxCell>
        <mxCell id="hVBBo-Noh_KrKmpqdySW-112" value="" style="endArrow=none;html=1;rounded=0;edgeStyle=orthogonalEdgeStyle;exitX=0.5;exitY=0;exitDx=0;exitDy=0;entryX=1;entryY=0.5;entryDx=0;entryDy=0;" parent="1" source="hVBBo-Noh_KrKmpqdySW-15" target="hVBBo-Noh_KrKmpqdySW-106" edge="1">
          <mxGeometry width="50" height="50" relative="1" as="geometry">
            <mxPoint x="240" y="265" as="sourcePoint" />
            <mxPoint x="220" y="130" as="targetPoint" />
          </mxGeometry>
        </mxCell>
        <mxCell id="hVBBo-Noh_KrKmpqdySW-113" value="" style="endArrow=none;html=1;rounded=0;edgeStyle=orthogonalEdgeStyle;exitX=0.5;exitY=0;exitDx=0;exitDy=0;entryX=1;entryY=0.5;entryDx=0;entryDy=0;" parent="1" source="hVBBo-Noh_KrKmpqdySW-15" target="hVBBo-Noh_KrKmpqdySW-107" edge="1">
          <mxGeometry width="50" height="50" relative="1" as="geometry">
            <mxPoint x="250" y="245" as="sourcePoint" />
            <mxPoint x="230" y="130" as="targetPoint" />
          </mxGeometry>
        </mxCell>
        <mxCell id="hVBBo-Noh_KrKmpqdySW-122" value="Invoice&amp;nbsp;" style="shape=ext;margin=3;double=1;whiteSpace=wrap;html=1;align=center;" parent="1" vertex="1">
          <mxGeometry x="735" y="170" width="80" height="30" as="geometry" />
        </mxCell>
        <mxCell id="hVBBo-Noh_KrKmpqdySW-123" value="Res Confirmation" style="shape=ext;margin=3;double=1;whiteSpace=wrap;html=1;align=center;" parent="1" vertex="1">
          <mxGeometry x="640" y="170" width="70" height="30" as="geometry" />
        </mxCell>
        <mxCell id="hVBBo-Noh_KrKmpqdySW-124" value="" style="endArrow=none;html=1;rounded=0;edgeStyle=orthogonalEdgeStyle;startArrow=ERone;startFill=0;exitX=0.5;exitY=1;exitDx=0;exitDy=0;entryX=0.5;entryY=0;entryDx=0;entryDy=0;" parent="1" source="hVBBo-Noh_KrKmpqdySW-123" target="hVBBo-Noh_KrKmpqdySW-7" edge="1">
          <mxGeometry width="50" height="50" relative="1" as="geometry">
            <mxPoint x="660" y="220" as="sourcePoint" />
            <mxPoint x="830" y="220" as="targetPoint" />
          </mxGeometry>
        </mxCell>
        <mxCell id="hVBBo-Noh_KrKmpqdySW-125" value="" style="endArrow=none;html=1;rounded=0;edgeStyle=orthogonalEdgeStyle;exitX=0.75;exitY=0;exitDx=0;exitDy=0;" parent="1" source="hVBBo-Noh_KrKmpqdySW-51" target="hVBBo-Noh_KrKmpqdySW-7" edge="1">
          <mxGeometry width="50" height="50" relative="1" as="geometry">
            <mxPoint x="698" y="340" as="sourcePoint" />
            <mxPoint x="750" y="220" as="targetPoint" />
          </mxGeometry>
        </mxCell>
        <mxCell id="hVBBo-Noh_KrKmpqdySW-7" value="Receive&amp;nbsp;" style="shape=associativeEntity;whiteSpace=wrap;html=1;align=center;" parent="1" vertex="1">
          <mxGeometry x="660" y="240" width="75" height="40" as="geometry" />
        </mxCell>
        <mxCell id="hVBBo-Noh_KrKmpqdySW-127" value="" style="endArrow=none;html=1;rounded=0;exitX=0.5;exitY=0;exitDx=0;exitDy=0;edgeStyle=orthogonalEdgeStyle;entryX=0;entryY=0.5;entryDx=0;entryDy=0;" parent="1" source="hVBBo-Noh_KrKmpqdySW-20" target="hVBBo-Noh_KrKmpqdySW-67" edge="1">
          <mxGeometry width="50" height="50" relative="1" as="geometry">
            <mxPoint x="295" y="350" as="sourcePoint" />
            <mxPoint x="220" y="270" as="targetPoint" />
          </mxGeometry>
        </mxCell>
        <mxCell id="hVBBo-Noh_KrKmpqdySW-9" value="Mange" style="shape=rhombus;perimeter=rhombusPerimeter;whiteSpace=wrap;html=1;align=center;" parent="1" vertex="1">
          <mxGeometry x="340" y="310" width="85" height="40" as="geometry" />
        </mxCell>
        <mxCell id="hVBBo-Noh_KrKmpqdySW-129" value="" style="endArrow=none;html=1;rounded=0;edgeStyle=orthogonalEdgeStyle;entryX=0;entryY=0.5;entryDx=0;entryDy=0;exitX=1;exitY=0.5;exitDx=0;exitDy=0;" parent="1" source="hVBBo-Noh_KrKmpqdySW-3" target="hVBBo-Noh_KrKmpqdySW-51" edge="1">
          <mxGeometry width="50" height="50" relative="1" as="geometry">
            <mxPoint x="570" y="560" as="sourcePoint" />
            <mxPoint x="620" y="510" as="targetPoint" />
          </mxGeometry>
        </mxCell>
        <mxCell id="hVBBo-Noh_KrKmpqdySW-130" value="Maintenance &amp;amp; Repair&amp;nbsp;" style="shape=ext;margin=3;double=1;whiteSpace=wrap;html=1;align=center;" parent="1" vertex="1">
          <mxGeometry x="627.5" y="680" width="100" height="40" as="geometry" />
        </mxCell>
        <mxCell id="hVBBo-Noh_KrKmpqdySW-132" value="Have Regular&amp;nbsp;" style="shape=associativeEntity;whiteSpace=wrap;html=1;align=center;" parent="1" vertex="1">
          <mxGeometry x="610" y="585" width="95" height="45" as="geometry" />
        </mxCell>
        <mxCell id="hVBBo-Noh_KrKmpqdySW-136" value="" style="endArrow=none;html=1;rounded=0;edgeStyle=orthogonalEdgeStyle;startArrow=ERoneToMany;startFill=0;entryX=0.5;entryY=1;entryDx=0;entryDy=0;exitX=0.5;exitY=0;exitDx=0;exitDy=0;" parent="1" source="hVBBo-Noh_KrKmpqdySW-130" target="hVBBo-Noh_KrKmpqdySW-132" edge="1">
          <mxGeometry width="50" height="50" relative="1" as="geometry">
            <mxPoint x="667.5" y="660" as="sourcePoint" />
            <mxPoint x="667.5" y="760" as="targetPoint" />
          </mxGeometry>
        </mxCell>
        <mxCell id="hVBBo-Noh_KrKmpqdySW-139" value="Insurance&amp;nbsp;" style="whiteSpace=wrap;html=1;align=center;" parent="1" vertex="1">
          <mxGeometry x="120" y="635" width="100" height="40" as="geometry" />
        </mxCell>
        <mxCell id="hVBBo-Noh_KrKmpqdySW-142" value="" style="endArrow=none;html=1;rounded=0;edgeStyle=orthogonalEdgeStyle;entryX=0;entryY=0.5;entryDx=0;entryDy=0;exitX=1;exitY=0.5;exitDx=0;exitDy=0;" parent="1" source="hVBBo-Noh_KrKmpqdySW-144" target="hVBBo-Noh_KrKmpqdySW-1" edge="1">
          <mxGeometry width="50" height="50" relative="1" as="geometry">
            <mxPoint x="20" y="610" as="sourcePoint" />
            <mxPoint x="70" y="560" as="targetPoint" />
          </mxGeometry>
        </mxCell>
        <mxCell id="hVBBo-Noh_KrKmpqdySW-143" value="Inspections&amp;nbsp;" style="whiteSpace=wrap;html=1;align=center;" parent="1" vertex="1">
          <mxGeometry x="90" y="530" width="90" height="40" as="geometry" />
        </mxCell>
        <mxCell id="hVBBo-Noh_KrKmpqdySW-145" value="" style="endArrow=none;html=1;rounded=0;edgeStyle=orthogonalEdgeStyle;entryX=0;entryY=0.5;entryDx=0;entryDy=0;exitX=1;exitY=0;exitDx=0;exitDy=0;" parent="1" source="hVBBo-Noh_KrKmpqdySW-143" target="hVBBo-Noh_KrKmpqdySW-144" edge="1">
          <mxGeometry width="50" height="50" relative="1" as="geometry">
            <mxPoint x="60" y="680" as="sourcePoint" />
            <mxPoint x="370" y="400" as="targetPoint" />
          </mxGeometry>
        </mxCell>
        <mxCell id="hVBBo-Noh_KrKmpqdySW-149" value="With out" style="shape=rhombus;double=1;perimeter=rhombusPerimeter;whiteSpace=wrap;html=1;align=center;" parent="1" vertex="1">
          <mxGeometry x="260" y="590" width="120" height="60" as="geometry" />
        </mxCell>
        <mxCell id="hVBBo-Noh_KrKmpqdySW-151" value="" style="edgeStyle=orthogonalEdgeStyle;fontSize=12;html=1;endArrow=ERone;endFill=1;rounded=0;entryX=1;entryY=0.5;entryDx=0;entryDy=0;" parent="1" target="hVBBo-Noh_KrKmpqdySW-143" edge="1">
          <mxGeometry width="100" height="100" relative="1" as="geometry">
            <mxPoint x="170" y="620" as="sourcePoint" />
            <mxPoint x="305" y="790" as="targetPoint" />
          </mxGeometry>
        </mxCell>
        <mxCell id="hVBBo-Noh_KrKmpqdySW-154" value="" style="endArrow=none;html=1;rounded=0;edgeStyle=orthogonalEdgeStyle;entryX=0;entryY=0.5;entryDx=0;entryDy=0;exitX=0.5;exitY=0;exitDx=0;exitDy=0;startArrow=oval;startFill=0;" parent="1" source="hVBBo-Noh_KrKmpqdySW-139" target="hVBBo-Noh_KrKmpqdySW-149" edge="1">
          <mxGeometry width="50" height="50" relative="1" as="geometry">
            <mxPoint x="209.45" y="745" as="sourcePoint" />
            <mxPoint x="259.45" y="695" as="targetPoint" />
          </mxGeometry>
        </mxCell>
        <mxCell id="hVBBo-Noh_KrKmpqdySW-156" value="&lt;span style=&quot;border-bottom: 1px dotted&quot;&gt;Vehicle ID&lt;/span&gt;" style="ellipse;whiteSpace=wrap;html=1;align=center;" parent="1" vertex="1">
          <mxGeometry x="15" y="230" width="65" height="30" as="geometry" />
        </mxCell>
        <mxCell id="hVBBo-Noh_KrKmpqdySW-157" value="&lt;span style=&quot;border-bottom: 1px dotted&quot;&gt;VIn&lt;/span&gt;" style="ellipse;whiteSpace=wrap;html=1;align=center;" parent="1" vertex="1">
          <mxGeometry x="15" y="250" width="65" height="30" as="geometry" />
        </mxCell>
        <mxCell id="hVBBo-Noh_KrKmpqdySW-158" value="&lt;span style=&quot;border-bottom: 1px dotted&quot;&gt;Vehicle ID&lt;/span&gt;" style="ellipse;whiteSpace=wrap;html=1;align=center;" parent="1" vertex="1">
          <mxGeometry x="15" y="270" width="65" height="30" as="geometry" />
        </mxCell>
        <mxCell id="hVBBo-Noh_KrKmpqdySW-160" value="&lt;span style=&quot;border-bottom: 1px dotted&quot;&gt;Price&lt;/span&gt;" style="ellipse;whiteSpace=wrap;html=1;align=center;" parent="1" vertex="1">
          <mxGeometry x="15" y="270" width="65" height="30" as="geometry" />
        </mxCell>
        <mxCell id="hVBBo-Noh_KrKmpqdySW-159" value="&lt;span style=&quot;border-bottom: 1px dotted&quot;&gt;Type&lt;/span&gt;" style="ellipse;whiteSpace=wrap;html=1;align=center;" parent="1" vertex="1">
          <mxGeometry x="15" y="290" width="65" height="30" as="geometry" />
        </mxCell>
        <mxCell id="hVBBo-Noh_KrKmpqdySW-161" value="" style="endArrow=none;html=1;rounded=0;edgeStyle=orthogonalEdgeStyle;exitX=1;exitY=0.5;exitDx=0;exitDy=0;entryX=0;entryY=0.5;entryDx=0;entryDy=0;" parent="1" source="hVBBo-Noh_KrKmpqdySW-156" target="hVBBo-Noh_KrKmpqdySW-19" edge="1">
          <mxGeometry width="50" height="50" relative="1" as="geometry">
            <mxPoint x="149.73000000000002" y="229.45" as="sourcePoint" />
            <mxPoint x="240" y="220" as="targetPoint" />
          </mxGeometry>
        </mxCell>
        <mxCell id="hVBBo-Noh_KrKmpqdySW-162" value="" style="endArrow=none;html=1;rounded=0;edgeStyle=orthogonalEdgeStyle;exitX=1;exitY=0.5;exitDx=0;exitDy=0;entryX=0;entryY=0.5;entryDx=0;entryDy=0;" parent="1" source="hVBBo-Noh_KrKmpqdySW-157" target="hVBBo-Noh_KrKmpqdySW-19" edge="1">
          <mxGeometry width="50" height="50" relative="1" as="geometry">
            <mxPoint x="124.45" y="230" as="sourcePoint" />
            <mxPoint x="164.45" y="305" as="targetPoint" />
          </mxGeometry>
        </mxCell>
        <mxCell id="hVBBo-Noh_KrKmpqdySW-163" value="" style="endArrow=none;html=1;rounded=0;edgeStyle=orthogonalEdgeStyle;exitX=1;exitY=0.5;exitDx=0;exitDy=0;entryX=0;entryY=0.5;entryDx=0;entryDy=0;" parent="1" source="hVBBo-Noh_KrKmpqdySW-160" target="hVBBo-Noh_KrKmpqdySW-19" edge="1">
          <mxGeometry width="50" height="50" relative="1" as="geometry">
            <mxPoint x="144.45" y="200" as="sourcePoint" />
            <mxPoint x="140" y="200" as="targetPoint" />
          </mxGeometry>
        </mxCell>
        <mxCell id="hVBBo-Noh_KrKmpqdySW-164" value="" style="endArrow=none;html=1;rounded=0;edgeStyle=orthogonalEdgeStyle;exitX=1;exitY=0.5;exitDx=0;exitDy=0;entryX=-0.065;entryY=0.524;entryDx=0;entryDy=0;entryPerimeter=0;" parent="1" source="hVBBo-Noh_KrKmpqdySW-159" target="hVBBo-Noh_KrKmpqdySW-19" edge="1">
          <mxGeometry width="50" height="50" relative="1" as="geometry">
            <mxPoint x="165" y="175" as="sourcePoint" />
            <mxPoint x="200" y="170" as="targetPoint" />
          </mxGeometry>
        </mxCell>
        <mxCell id="hVBBo-Noh_KrKmpqdySW-165" value="Maintenance&amp;nbsp; ID" style="ellipse;whiteSpace=wrap;html=1;align=center;" parent="1" vertex="1">
          <mxGeometry x="757.5" y="645" width="70" height="30" as="geometry" />
        </mxCell>
        <mxCell id="hVBBo-Noh_KrKmpqdySW-166" value="Log In&amp;nbsp;" style="ellipse;whiteSpace=wrap;html=1;align=center;" parent="1" vertex="1">
          <mxGeometry x="757.5" y="665" width="70" height="30" as="geometry" />
        </mxCell>
        <mxCell id="hVBBo-Noh_KrKmpqdySW-167" value="Log In&amp;nbsp;" style="ellipse;whiteSpace=wrap;html=1;align=center;" parent="1" vertex="1">
          <mxGeometry x="757.5" y="685" width="70" height="30" as="geometry" />
        </mxCell>
        <mxCell id="hVBBo-Noh_KrKmpqdySW-168" value="Vehicle ID" style="ellipse;whiteSpace=wrap;html=1;align=center;" parent="1" vertex="1">
          <mxGeometry x="757.5" y="665" width="70" height="35" as="geometry" />
        </mxCell>
        <mxCell id="hVBBo-Noh_KrKmpqdySW-169" value="Date" style="ellipse;whiteSpace=wrap;html=1;align=center;" parent="1" vertex="1">
          <mxGeometry x="757.5" y="685" width="70" height="30" as="geometry" />
        </mxCell>
        <mxCell id="hVBBo-Noh_KrKmpqdySW-170" value="Type of M" style="ellipse;whiteSpace=wrap;html=1;align=center;" parent="1" vertex="1">
          <mxGeometry x="757.5" y="705" width="70" height="30" as="geometry" />
        </mxCell>
        <mxCell id="hVBBo-Noh_KrKmpqdySW-171" value="M Cost" style="ellipse;whiteSpace=wrap;html=1;align=center;" parent="1" vertex="1">
          <mxGeometry x="757.5" y="725" width="70" height="30" as="geometry" />
        </mxCell>
        <mxCell id="hVBBo-Noh_KrKmpqdySW-173" value="" style="endArrow=none;html=1;rounded=0;edgeStyle=orthogonalEdgeStyle;entryX=1;entryY=0.5;entryDx=0;entryDy=0;exitX=0;exitY=0.5;exitDx=0;exitDy=0;" parent="1" source="hVBBo-Noh_KrKmpqdySW-165" target="hVBBo-Noh_KrKmpqdySW-130" edge="1">
          <mxGeometry width="50" height="50" relative="1" as="geometry">
            <mxPoint x="637.23" y="840" as="sourcePoint" />
            <mxPoint x="687.23" y="790" as="targetPoint" />
          </mxGeometry>
        </mxCell>
        <mxCell id="hVBBo-Noh_KrKmpqdySW-174" value="" style="endArrow=none;html=1;rounded=0;edgeStyle=orthogonalEdgeStyle;entryX=1;entryY=0.5;entryDx=0;entryDy=0;exitX=0;exitY=0.5;exitDx=0;exitDy=0;" parent="1" source="hVBBo-Noh_KrKmpqdySW-168" target="hVBBo-Noh_KrKmpqdySW-130" edge="1">
          <mxGeometry width="50" height="50" relative="1" as="geometry">
            <mxPoint x="607.5" y="850" as="sourcePoint" />
            <mxPoint x="657.5" y="800" as="targetPoint" />
          </mxGeometry>
        </mxCell>
        <mxCell id="hVBBo-Noh_KrKmpqdySW-175" value="" style="endArrow=none;html=1;rounded=0;edgeStyle=orthogonalEdgeStyle;entryX=1;entryY=0.5;entryDx=0;entryDy=0;exitX=0;exitY=0.5;exitDx=0;exitDy=0;" parent="1" source="hVBBo-Noh_KrKmpqdySW-169" target="hVBBo-Noh_KrKmpqdySW-130" edge="1">
          <mxGeometry width="50" height="50" relative="1" as="geometry">
            <mxPoint x="566.95" y="850" as="sourcePoint" />
            <mxPoint x="616.95" y="800" as="targetPoint" />
          </mxGeometry>
        </mxCell>
        <mxCell id="hVBBo-Noh_KrKmpqdySW-176" value="" style="endArrow=none;html=1;rounded=0;edgeStyle=orthogonalEdgeStyle;entryX=1;entryY=0.5;entryDx=0;entryDy=0;exitX=0;exitY=0.5;exitDx=0;exitDy=0;" parent="1" source="hVBBo-Noh_KrKmpqdySW-170" target="hVBBo-Noh_KrKmpqdySW-130" edge="1">
          <mxGeometry width="50" height="50" relative="1" as="geometry">
            <mxPoint x="517.5" y="860" as="sourcePoint" />
            <mxPoint x="567.5" y="810" as="targetPoint" />
          </mxGeometry>
        </mxCell>
        <mxCell id="hVBBo-Noh_KrKmpqdySW-177" value="" style="endArrow=none;html=1;rounded=0;edgeStyle=orthogonalEdgeStyle;entryX=1;entryY=0.5;entryDx=0;entryDy=0;exitX=0;exitY=0.5;exitDx=0;exitDy=0;" parent="1" source="hVBBo-Noh_KrKmpqdySW-171" target="hVBBo-Noh_KrKmpqdySW-130" edge="1">
          <mxGeometry width="50" height="50" relative="1" as="geometry">
            <mxPoint x="467.5" y="850" as="sourcePoint" />
            <mxPoint x="517.5" y="800" as="targetPoint" />
          </mxGeometry>
        </mxCell>
        <mxCell id="hVBBo-Noh_KrKmpqdySW-180" value="INS ID" style="ellipse;whiteSpace=wrap;html=1;align=center;" parent="1" vertex="1">
          <mxGeometry y="600" width="70" height="30" as="geometry" />
        </mxCell>
        <mxCell id="hVBBo-Noh_KrKmpqdySW-181" value="Log In&amp;nbsp;" style="ellipse;whiteSpace=wrap;html=1;align=center;" parent="1" vertex="1">
          <mxGeometry y="620" width="70" height="30" as="geometry" />
        </mxCell>
        <mxCell id="hVBBo-Noh_KrKmpqdySW-182" value="Log In&amp;nbsp;" style="ellipse;whiteSpace=wrap;html=1;align=center;" parent="1" vertex="1">
          <mxGeometry y="640" width="70" height="30" as="geometry" />
        </mxCell>
        <mxCell id="hVBBo-Noh_KrKmpqdySW-183" value="Vehicle ID" style="ellipse;whiteSpace=wrap;html=1;align=center;" parent="1" vertex="1">
          <mxGeometry y="620" width="70" height="35" as="geometry" />
        </mxCell>
        <mxCell id="hVBBo-Noh_KrKmpqdySW-184" value="Iinc Name" style="ellipse;whiteSpace=wrap;html=1;align=center;" parent="1" vertex="1">
          <mxGeometry y="640" width="70" height="30" as="geometry" />
        </mxCell>
        <mxCell id="hVBBo-Noh_KrKmpqdySW-185" value="Policy #" style="ellipse;whiteSpace=wrap;html=1;align=center;" parent="1" vertex="1">
          <mxGeometry y="660" width="70" height="30" as="geometry" />
        </mxCell>
        <mxCell id="hVBBo-Noh_KrKmpqdySW-186" value="p start date" style="ellipse;whiteSpace=wrap;html=1;align=center;" parent="1" vertex="1">
          <mxGeometry y="680" width="70" height="30" as="geometry" />
        </mxCell>
        <mxCell id="hVBBo-Noh_KrKmpqdySW-187" value="p end date" style="ellipse;whiteSpace=wrap;html=1;align=center;" parent="1" vertex="1">
          <mxGeometry y="705" width="70" height="30" as="geometry" />
        </mxCell>
        <mxCell id="hVBBo-Noh_KrKmpqdySW-188" value="" style="endArrow=none;html=1;rounded=0;edgeStyle=orthogonalEdgeStyle;exitX=1;exitY=0.5;exitDx=0;exitDy=0;entryX=0.75;entryY=1;entryDx=0;entryDy=0;" parent="1" source="hVBBo-Noh_KrKmpqdySW-180" target="hVBBo-Noh_KrKmpqdySW-139" edge="1">
          <mxGeometry width="50" height="50" relative="1" as="geometry">
            <mxPoint x="119.99999999999999" y="765" as="sourcePoint" />
            <mxPoint x="170" y="715" as="targetPoint" />
          </mxGeometry>
        </mxCell>
        <mxCell id="hVBBo-Noh_KrKmpqdySW-189" value="" style="endArrow=none;html=1;rounded=0;edgeStyle=orthogonalEdgeStyle;exitX=1;exitY=0.5;exitDx=0;exitDy=0;entryX=0.75;entryY=1;entryDx=0;entryDy=0;" parent="1" source="hVBBo-Noh_KrKmpqdySW-183" target="hVBBo-Noh_KrKmpqdySW-139" edge="1">
          <mxGeometry width="50" height="50" relative="1" as="geometry">
            <mxPoint x="140" y="817.5" as="sourcePoint" />
            <mxPoint x="165" y="722.5" as="targetPoint" />
          </mxGeometry>
        </mxCell>
        <mxCell id="hVBBo-Noh_KrKmpqdySW-190" value="" style="endArrow=none;html=1;rounded=0;edgeStyle=orthogonalEdgeStyle;exitX=1;exitY=0.5;exitDx=0;exitDy=0;entryX=0.75;entryY=1;entryDx=0;entryDy=0;" parent="1" source="hVBBo-Noh_KrKmpqdySW-184" target="hVBBo-Noh_KrKmpqdySW-139" edge="1">
          <mxGeometry width="50" height="50" relative="1" as="geometry">
            <mxPoint x="164.45" y="817.25" as="sourcePoint" />
            <mxPoint x="189.45" y="722.25" as="targetPoint" />
          </mxGeometry>
        </mxCell>
        <mxCell id="hVBBo-Noh_KrKmpqdySW-191" value="" style="endArrow=none;html=1;rounded=0;edgeStyle=orthogonalEdgeStyle;exitX=1;exitY=0.5;exitDx=0;exitDy=0;entryX=0.75;entryY=1;entryDx=0;entryDy=0;" parent="1" source="hVBBo-Noh_KrKmpqdySW-185" target="hVBBo-Noh_KrKmpqdySW-139" edge="1">
          <mxGeometry width="50" height="50" relative="1" as="geometry">
            <mxPoint x="185" y="820" as="sourcePoint" />
            <mxPoint x="210" y="725" as="targetPoint" />
          </mxGeometry>
        </mxCell>
        <mxCell id="hVBBo-Noh_KrKmpqdySW-192" value="" style="endArrow=none;html=1;rounded=0;edgeStyle=orthogonalEdgeStyle;exitX=1;exitY=0.5;exitDx=0;exitDy=0;entryX=0.75;entryY=1;entryDx=0;entryDy=0;" parent="1" source="hVBBo-Noh_KrKmpqdySW-186" target="hVBBo-Noh_KrKmpqdySW-139" edge="1">
          <mxGeometry width="50" height="50" relative="1" as="geometry">
            <mxPoint x="204.45" y="824.45" as="sourcePoint" />
            <mxPoint x="229.45" y="729.45" as="targetPoint" />
          </mxGeometry>
        </mxCell>
        <mxCell id="hVBBo-Noh_KrKmpqdySW-193" value="" style="endArrow=none;html=1;rounded=0;edgeStyle=orthogonalEdgeStyle;exitX=1;exitY=0.5;exitDx=0;exitDy=0;entryX=0.75;entryY=1;entryDx=0;entryDy=0;" parent="1" source="hVBBo-Noh_KrKmpqdySW-187" target="hVBBo-Noh_KrKmpqdySW-139" edge="1">
          <mxGeometry width="50" height="50" relative="1" as="geometry">
            <mxPoint x="230" y="824.45" as="sourcePoint" />
            <mxPoint x="255" y="729.45" as="targetPoint" />
          </mxGeometry>
        </mxCell>
        <mxCell id="hVBBo-Noh_KrKmpqdySW-196" value="&lt;b&gt;&lt;font color=&quot;#33ffff&quot; style=&quot;font-size: 22px;&quot;&gt;Car Rental ERD&amp;nbsp;&lt;/font&gt;&lt;/b&gt;" style="whiteSpace=wrap;html=1;align=center;fillColor=none;strokeColor=none;" parent="1" vertex="1">
          <mxGeometry x="270" width="300" height="40" as="geometry" />
        </mxCell>
        <mxCell id="hVBBo-Noh_KrKmpqdySW-197" value="" style="endArrow=none;html=1;rounded=0;edgeStyle=orthogonalEdgeStyle;entryX=0;entryY=0.5;entryDx=0;entryDy=0;exitX=0.5;exitY=1;exitDx=0;exitDy=0;startArrow=ERoneToMany;startFill=0;" parent="1" source="hVBBo-Noh_KrKmpqdySW-19" target="hVBBo-Noh_KrKmpqdySW-8" edge="1">
          <mxGeometry width="50" height="50" relative="1" as="geometry">
            <mxPoint x="250" y="775" as="sourcePoint" />
            <mxPoint x="300" y="725" as="targetPoint" />
          </mxGeometry>
        </mxCell>
        <mxCell id="hVBBo-Noh_KrKmpqdySW-144" value="Can&#39;t Rent" style="shape=rhombus;double=1;perimeter=rhombusPerimeter;whiteSpace=wrap;html=1;align=center;" parent="1" vertex="1">
          <mxGeometry x="120" y="400" width="110" height="50" as="geometry" />
        </mxCell>
        <mxCell id="hVBBo-Noh_KrKmpqdySW-114" value="" style="endArrow=none;html=1;rounded=0;edgeStyle=orthogonalEdgeStyle;exitX=0.5;exitY=0;exitDx=0;exitDy=0;entryX=1;entryY=0.5;entryDx=0;entryDy=0;" parent="1" source="hVBBo-Noh_KrKmpqdySW-15" target="hVBBo-Noh_KrKmpqdySW-108" edge="1">
          <mxGeometry width="50" height="50" relative="1" as="geometry">
            <mxPoint x="290" y="235" as="sourcePoint" />
            <mxPoint x="270" y="140" as="targetPoint" />
          </mxGeometry>
        </mxCell>
        <mxCell id="hVBBo-Noh_KrKmpqdySW-111" value="Price" style="ellipse;whiteSpace=wrap;html=1;align=center;" parent="1" vertex="1">
          <mxGeometry x="310" y="170" width="70" height="30" as="geometry" />
        </mxCell>
        <mxCell id="VTipyyB4JfJVMdoI0Paj-1" value="Location&amp;nbsp;" style="shape=ext;margin=3;double=1;whiteSpace=wrap;html=1;align=center;" vertex="1" parent="1">
          <mxGeometry x="370" y="665" width="100" height="40" as="geometry" />
        </mxCell>
        <mxCell id="VTipyyB4JfJVMdoI0Paj-2" value="" style="edgeStyle=orthogonalEdgeStyle;fontSize=12;html=1;endArrow=ERmandOne;startArrow=ERmandOne;rounded=0;entryX=0;entryY=1;entryDx=0;entryDy=0;exitX=0.5;exitY=0;exitDx=0;exitDy=0;" edge="1" parent="1" source="VTipyyB4JfJVMdoI0Paj-1" target="hVBBo-Noh_KrKmpqdySW-4">
          <mxGeometry width="100" height="100" relative="1" as="geometry">
            <mxPoint x="370" y="680" as="sourcePoint" />
            <mxPoint x="470" y="580" as="targetPoint" />
          </mxGeometry>
        </mxCell>
        <mxCell id="VTipyyB4JfJVMdoI0Paj-3" value="Loc ID&amp;nbsp;" style="ellipse;whiteSpace=wrap;html=1;align=center;" vertex="1" parent="1">
          <mxGeometry x="280" y="755" width="70" height="30" as="geometry" />
        </mxCell>
        <mxCell id="VTipyyB4JfJVMdoI0Paj-4" value="Loc Name" style="ellipse;whiteSpace=wrap;html=1;align=center;" vertex="1" parent="1">
          <mxGeometry x="350" y="755" width="70" height="30" as="geometry" />
        </mxCell>
        <mxCell id="VTipyyB4JfJVMdoI0Paj-5" value="Add" style="ellipse;whiteSpace=wrap;html=1;align=center;" vertex="1" parent="1">
          <mxGeometry x="415" y="755" width="70" height="30" as="geometry" />
        </mxCell>
        <mxCell id="VTipyyB4JfJVMdoI0Paj-6" value="Num" style="ellipse;whiteSpace=wrap;html=1;align=center;" vertex="1" parent="1">
          <mxGeometry x="485" y="755" width="70" height="30" as="geometry" />
        </mxCell>
        <mxCell id="VTipyyB4JfJVMdoI0Paj-7" value="" style="endArrow=none;html=1;rounded=0;edgeStyle=orthogonalEdgeStyle;entryX=0.5;entryY=1;entryDx=0;entryDy=0;exitX=0.5;exitY=0;exitDx=0;exitDy=0;" edge="1" parent="1" source="VTipyyB4JfJVMdoI0Paj-3" target="VTipyyB4JfJVMdoI0Paj-1">
          <mxGeometry width="50" height="50" relative="1" as="geometry">
            <mxPoint x="375" y="799.5" as="sourcePoint" />
            <mxPoint x="425" y="749.5" as="targetPoint" />
          </mxGeometry>
        </mxCell>
        <mxCell id="VTipyyB4JfJVMdoI0Paj-8" value="" style="endArrow=none;html=1;rounded=0;edgeStyle=orthogonalEdgeStyle;entryX=0.5;entryY=1.175;entryDx=0;entryDy=0;exitX=0.5;exitY=0;exitDx=0;exitDy=0;entryPerimeter=0;" edge="1" parent="1" source="VTipyyB4JfJVMdoI0Paj-4" target="VTipyyB4JfJVMdoI0Paj-1">
          <mxGeometry width="50" height="50" relative="1" as="geometry">
            <mxPoint x="445" y="780" as="sourcePoint" />
            <mxPoint x="550" y="700" as="targetPoint" />
          </mxGeometry>
        </mxCell>
        <mxCell id="VTipyyB4JfJVMdoI0Paj-9" value="" style="endArrow=none;html=1;rounded=0;edgeStyle=orthogonalEdgeStyle;exitX=0.5;exitY=0;exitDx=0;exitDy=0;entryX=0.5;entryY=1;entryDx=0;entryDy=0;" edge="1" parent="1" source="VTipyyB4JfJVMdoI0Paj-5" target="VTipyyB4JfJVMdoI0Paj-1">
          <mxGeometry width="50" height="50" relative="1" as="geometry">
            <mxPoint x="520" y="805" as="sourcePoint" />
            <mxPoint x="420" y="720" as="targetPoint" />
          </mxGeometry>
        </mxCell>
        <mxCell id="VTipyyB4JfJVMdoI0Paj-10" value="" style="endArrow=none;html=1;rounded=0;edgeStyle=orthogonalEdgeStyle;exitX=0.5;exitY=0;exitDx=0;exitDy=0;entryX=0.5;entryY=1;entryDx=0;entryDy=0;" edge="1" parent="1" source="VTipyyB4JfJVMdoI0Paj-6" target="VTipyyB4JfJVMdoI0Paj-1">
          <mxGeometry width="50" height="50" relative="1" as="geometry">
            <mxPoint x="590" y="775" as="sourcePoint" />
            <mxPoint x="490" y="690" as="targetPoint" />
          </mxGeometry>
        </mxCell>
      </root>
    </mxGraphModel>
  </diagram>
</mxfile>
